<svg width="579" height="579" viewBox="0 0 579 579" fill="none" xmlns="http://www.w3.org/2000/svg">
<circle cx="289.5" cy="289.5" r="289.5" fill="#00EF8B"/>
<path d="M480.513 199.158L404.551 131.619C400.443 127.97 394.215 128.154 390.332 132.046L331.411 191.09C330.647 191.852 330.076 192.726 329.602 193.634C317.008 190.917 303.536 189.61 289.503 189.61C275.471 189.61 261.995 190.917 249.401 193.634C248.924 192.726 248.353 191.856 247.592 191.094L188.672 132.046C184.792 128.154 178.56 127.97 174.452 131.619L98.4904 199.158C94.2025 202.97 93.8117 209.541 97.6155 213.835C99.6661 216.15 102.515 217.332 105.379 217.332C107.827 217.332 110.286 216.469 112.26 214.712L180.912 153.671L227.398 200.257C189.75 215.259 164.365 247.005 164.365 301.09C164.365 373.952 210.408 439.401 270.502 451V390.691H308.502V451C368.591 439.401 414.638 373.955 414.638 301.09C414.638 247.005 389.253 215.259 351.602 200.26L398.088 153.675L466.74 214.715C468.714 216.472 471.173 217.335 473.621 217.335C476.484 217.335 479.334 216.154 481.384 213.839C485.188 209.541 484.797 202.97 480.513 199.158ZM225.091 368.116C213.358 368.116 203.845 358.585 203.845 346.823C203.845 335.06 213.358 325.533 225.091 325.533C236.828 325.533 246.334 335.06 246.334 346.823C246.334 358.585 236.828 368.116 225.091 368.116ZM375.154 346.823C375.154 358.585 365.638 368.116 353.905 368.116C342.172 368.116 332.663 358.585 332.663 346.823C332.663 335.06 342.172 325.533 353.905 325.533C365.638 325.533 375.154 335.064 375.154 346.823Z" fill="white"/>
</svg>
